# xmcd CD database file
#
# Track frame offsets:
#	150
#	11100
#	23302
#	39310
#	48732
#	67577
#	79887
#	95215
#	105240
#	118572
#	130845
#	140997
#	151177
#	164880
#	174952
#	188970
#	202165
#	216165
#	230085
#	242040
#	255302
#	266217
#
# Disc length: 3751 seconds
#
# Revision: 3
# Processed by: cddbd v1.5.2PL0 Copyright (c) Steve Scherf et al.
# Submitted via: CdAid (MTCDDB.DLL V2003.12.21)
#
DISCID=380ea516
DTITLE=Rising Sons - Rising Sons featuring Taj Mahal and Ry Cooder
DYEAR=1966
DGENRE=Blues
TTITLE0=Statesboro Blues
TTITLE1=If The River Was Whiskey (Divin' Duck Blues)
TTITLE2=By And By (Poor Me)
TTITLE3=Candy Man
TTITLE4=2:10 Train
TTITLE5=Let The Good Times Roll
TTITLE6=44 Blues
TTITLE7=11th Street Overcrossing
TTITLE8=Corrin, Corrina [sic]
TTITLE9=Tulsa County
TTITLE10=Walkin' Down The Line
TTITLE11=The Girl With Green Eyes
TTITLE12=Sunny's Dream
TTITLE13=Spanish Lace Blues
TTITLE14=The Devil's Got My Woman
TTITLE15=Take A Giant Step
TTITLE16=Flyin' So High
TTITLE17=Dust My Broom
TTITLE18=Last Fair Deal Gone Down
TTITLE19=Baby, What You Want Me To Do
TTITLE20=Statesboro Blues
TTITLE21=I Got A Little
EXTD=ID3G:   0 YEAR: 1966
EXTT0=
EXTT1=
EXTT2=
EXTT3=
EXTT4=
EXTT5=
EXTT6=
EXTT7=
EXTT8=
EXTT9=
EXTT10=
EXTT11=
EXTT12=
EXTT13=
EXTT14=
EXTT15=
EXTT16=
EXTT17=
EXTT18=
EXTT19=
EXTT20=
EXTT21="I Got A LIttle" is a mono recording\n
PLAYORDER=
